<?xml version="1.0" encoding="UTF-8"?>
<!DOCTYPE svg PUBLIC "-//W3C//DTD SVG 1.1//EN" "http://www.w3.org/Graphics/SVG/1.1/DTD/svg11.dtd">
<svg version="1.1" xmlns="http://www.w3.org/2000/svg" xmlns:xlink="http://www.w3.org/1999/xlink" x="0" y="0" width="261" height="264" viewBox="0, 0, 261, 264">
  <g id="ãƒ_x00ac_ã_x201a__x00a4_ãƒ_x00a4_ãƒ_x00bc__x0020_1">
    <g>
      <path d="M165.563,187.164 L154.691,187.74 L157.643,237.131 C157.643,237.203 157.643,237.275 157.643,237.275 C157.643,238.499 159.083,239.507 160.883,239.507 C162.539,239.507 163.907,238.571 164.051,237.419 L164.123,237.419 L165.563,187.092 z" fill="#C59D72"/>
      <path d="M165.563,187.164 L154.691,187.74 L157.643,237.131 C157.643,237.203 157.643,237.275 157.643,237.275 C157.643,238.499 159.083,239.507 160.883,239.507 C162.539,239.507 163.907,238.571 164.051,237.419 L164.123,237.419 L165.563,187.092 z" fill-opacity="0" stroke="#373435" stroke-width="1.875" stroke-linejoin="round"/>
    </g>
    <g>
      <path d="M210.274,86.58 L243.249,91.044 C243.249,91.044 247.929,90.756 247.425,97.884 C246.921,105.012 237.489,179.388 237.489,179.388 L203.074,178.308 L205.162,86.508 L210.202,86.58 z" fill="#C59D72"/>
      <path d="M210.274,86.58 L243.249,91.044 C243.249,91.044 247.929,90.756 247.425,97.884 C246.921,105.012 237.489,179.388 237.489,179.388 L203.074,178.308 L205.162,86.508 L210.202,86.58 z" fill-opacity="0" stroke="#373435" stroke-width="1.875" stroke-linejoin="round"/>
    </g>
    <g>
      <path d="M129.492,188.244 L15.519,207.899 L12.423,206.459 L11.991,195.299 L127.548,177.084 z" fill="#8B7154"/>
      <path d="M129.492,188.244 L15.519,207.899 L12.423,206.459 L11.991,195.299 L127.548,177.084 z" fill-opacity="0" stroke="#373435" stroke-width="1.875" stroke-linejoin="round"/>
    </g>
    <g>
      <path d="M102.565,230.363 L110.413,228.779 L66.134,45.973 L57.998,46.621 z" fill="#8B7154"/>
      <path d="M102.565,230.363 L110.413,228.779 L66.134,45.973 L57.998,46.621 z" fill-opacity="0" stroke="#373435" stroke-width="1.875" stroke-linejoin="round"/>
    </g>
    <g>
      <path d="M42.95,242.747 L35.103,244.331 L40.214,48.205 L48.422,47.485 z" fill="#8B7154"/>
      <path d="M42.95,242.747 L35.103,244.331 L40.214,48.205 L48.422,47.485 z" fill-opacity="0" stroke="#373435" stroke-width="1.875" stroke-linejoin="round"/>
    </g>
    <g>
      <path d="M66.926,219.923 L59.078,221.579 L49.214,39.709 L56.99,39.061 z" fill="#8B7154"/>
      <path d="M66.926,219.923 L59.078,221.579 L49.214,39.709 L56.99,39.061 z" fill-opacity="0" stroke="#373435" stroke-width="1.875" stroke-linejoin="round"/>
    </g>
    <g>
      <path d="M127.62,180.108 L104.005,48.133 L7.815,55.837 L7.815,55.837 L7.815,55.837 L7.815,55.837 L7.815,55.837 L4.287,57.853 L20.055,198.611 z" fill="#FEFEFE"/>
      <path d="M127.62,180.108 L104.005,48.133 L7.815,55.837 L7.815,55.837 L7.815,55.837 L7.815,55.837 L7.815,55.837 L4.287,57.853 L20.055,198.611 z" fill-opacity="0" stroke="#373435" stroke-width="1.875" stroke-linejoin="round"/>
    </g>
    <g>
      <path d="M7.959,56.197 L24.015,197.891 z" fill="#FEFEFE"/>
      <path d="M7.959,56.197 L24.015,197.891 z" fill-opacity="0" stroke="#373435" stroke-width="1.875" stroke-linejoin="round"/>
    </g>
    <g>
      <path d="M131.148,198.179 L127.044,207.035 L115.02,214.883 L114.804,219.635 L138.42,215.027 L137.052,210.131 L139.716,202.643 z" fill="#FDD9C2"/>
      <path d="M131.148,198.179 L127.044,207.035 L115.02,214.883 L114.804,219.635 L138.42,215.027 L137.052,210.131 L139.716,202.643 z" fill-opacity="0" stroke="#373435" stroke-width="1.875" stroke-linejoin="round"/>
    </g>
    <g>
      <path d="M155.339,234.467 L154.907,239.795 L149.363,246.851 L152.315,251.531 L167.219,243.179 L164.555,238.139 L163.475,232.091 z" fill="#FDD9C2"/>
      <path d="M155.339,234.467 L154.907,239.795 L149.363,246.851 L152.315,251.531 L167.219,243.179 L164.555,238.139 L163.475,232.091 z" fill-opacity="0" stroke="#373435" stroke-width="1.875" stroke-linejoin="round"/>
    </g>
    <g>
      <path d="M137.772,211.643 L139.644,218.339 C133.092,220.427 122.436,222.515 122.436,222.515 C122.436,222.515 111.277,224.387 107.101,223.523 C102.853,222.659 104.941,220.427 104.941,220.427 C110.989,214.595 119.844,211.139 119.844,211.139 C119.844,211.139 123.012,212.939 124.884,215.387 C124.884,215.387 130.572,213.731 137.7,211.571 z" fill="#AC8159"/>
      <path d="M137.772,211.643 L139.644,218.339 C133.092,220.427 122.436,222.515 122.436,222.515 C122.436,222.515 111.277,224.387 107.101,223.523 C102.853,222.659 104.941,220.427 104.941,220.427 C110.989,214.595 119.844,211.139 119.844,211.139 C119.844,211.139 123.012,212.939 124.884,215.387 C124.884,215.387 130.572,213.731 137.7,211.571 z" fill-opacity="0" stroke="#373435" stroke-width="1.875" stroke-linejoin="round"/>
    </g>
    <g>
      <path d="M168.083,239.795 L169.739,246.203 C165.275,249.875 147.78,257.795 147.78,257.795 C147.78,257.795 143.82,259.379 140.436,258.371 C137.052,257.291 139.428,253.691 139.428,253.691 C145.548,246.419 151.595,240.659 151.595,240.659 C151.595,240.659 155.339,241.883 156.275,244.691 C156.275,244.691 161.891,243.683 168.155,239.867 z" fill="#AC8159"/>
      <path d="M168.083,239.795 L169.739,246.203 C165.275,249.875 147.78,257.795 147.78,257.795 C147.78,257.795 143.82,259.379 140.436,258.371 C137.052,257.291 139.428,253.691 139.428,253.691 C145.548,246.419 151.595,240.659 151.595,240.659 C151.595,240.659 155.339,241.883 156.275,244.691 C156.275,244.691 161.891,243.683 168.155,239.867 z" fill-opacity="0" stroke="#373435" stroke-width="1.875" stroke-linejoin="round"/>
    </g>
    <path d="M141.372,76.861 C141.372,76.861 133.956,67.717 132.876,67.357 C131.004,66.709 130.932,68.581 130.932,68.581 L129.204,70.741 L129.564,73.909 C127.332,73.045 126.756,74.701 126.9,75.709 C127.044,76.717 129.132,78.589 129.132,78.589 L129.852,81.396 C129.708,83.052 129.852,84.78 129.852,86.148 C129.852,88.164 129.708,90.396 130.356,92.268 C131.004,94.212 132.372,95.868 133.308,97.668 L133.812,100.116 L140.94,94.428 C140.94,94.428 142.236,81.828 142.452,79.884 C142.668,77.941 141.444,76.861 141.444,76.861 z" fill="#FDD9C2"/>
    <path d="M129.132,78.517 C129.132,78.517 127.044,76.645 126.9,75.637 C126.756,74.629 127.26,72.973 129.564,73.837" fill-opacity="0" stroke="#373435" stroke-width="1.875" stroke-linecap="round" stroke-linejoin="round"/>
    <path d="M129.492,73.837 L129.132,70.741 L130.86,68.509" fill-opacity="0" stroke="#373435" stroke-width="1.875" stroke-linecap="round" stroke-linejoin="round"/>
    <path d="M130.86,68.509 C130.86,68.509 130.932,66.637 132.804,67.285 C133.884,67.645 141.3,76.788 141.3,76.788 C141.3,76.788 142.596,77.796 142.308,79.812 C142.092,81.756 140.796,94.356 140.796,94.356" fill-opacity="0" stroke="#373435" stroke-width="1.875" stroke-linecap="round" stroke-linejoin="round"/>
    <g>
      <path d="M117.972,53.533 C118.044,52.885 118.332,52.309 118.98,51.949 C119.916,51.373 121.14,51.733 121.716,52.669 L138.996,82.116 C139.572,83.052 139.212,84.276 138.276,84.852 C137.34,85.428 136.116,85.068 135.54,84.132 L118.26,54.685 C118.044,54.325 117.972,53.965 117.972,53.533 z" fill="#C59D72"/>
      <path d="M117.972,53.533 C118.044,52.885 118.332,52.309 118.98,51.949 C119.916,51.373 121.14,51.733 121.716,52.669 L138.996,82.116 C139.572,83.052 139.212,84.276 138.276,84.852 C137.34,85.428 136.116,85.068 135.54,84.132 L118.26,54.685 C118.044,54.325 117.972,53.965 117.972,53.533 z" fill-opacity="0" stroke="#373435" stroke-width="1.875" stroke-linejoin="round"/>
    </g>
    <path d="M135.18,81.972 L134.1,99.612 C133.38,96.948 131.22,94.788 130.356,92.196 C129.708,90.324 129.852,88.092 129.852,86.076 C129.852,83.412 129.204,79.164 131.652,77.365 C134.532,76.141 135.036,79.596 135.252,81.972 z" fill="#FDD9C2"/>
    <path d="M134.028,99.612 C133.308,96.948 131.148,94.788 130.284,92.196 C129.636,90.324 129.78,88.092 129.78,86.076 C129.78,83.412 129.132,79.164 131.58,77.365 C134.46,76.141 134.964,79.596 135.18,81.972" fill-opacity="0" stroke="#373435" stroke-width="1.875" stroke-linecap="round" stroke-linejoin="round"/>
    <path d="M135.18,81.972 L135.54,84.06" fill-opacity="0" stroke="#373435" stroke-width="1.875" stroke-linecap="round" stroke-linejoin="round"/>
    <path d="M138.276,84.78 L135.54,84.06 C135.54,84.06 136.548,85.572 138.276,84.78 z" fill="#FDD9C2"/>
    <path d="M135.54,84.06 C135.54,84.06 136.548,85.572 138.276,84.78" fill-opacity="0" stroke="#373435" stroke-width="1.875" stroke-linecap="round" stroke-linejoin="round"/>
    <g>
      <path d="M121.428,49.573 C121.428,49.573 118.908,34.885 109.405,36.325 C109.405,36.325 105.013,37.189 102.781,36.901 C102.781,36.901 106.381,37.189 107.893,39.133 C109.405,41.077 109.981,43.093 110.485,45.469 C111.708,51.013 113.652,52.525 115.596,53.245 C117.54,53.965 121.428,49.645 121.428,49.645 z" fill="#38ACE2"/>
      <path d="M121.428,49.573 C121.428,49.573 118.908,34.885 109.405,36.325 C109.405,36.325 105.013,37.189 102.781,36.901 C102.781,36.901 106.381,37.189 107.893,39.133 C109.405,41.077 109.981,43.093 110.485,45.469 C111.708,51.013 113.652,52.525 115.596,53.245 C117.54,53.965 121.428,49.645 121.428,49.645 z" fill-opacity="0" stroke="#373435" stroke-width="1.875" stroke-linejoin="round"/>
    </g>
    <g>
      <path d="M210.562,198.395 L199.69,198.971 L202.642,248.363 C202.642,248.435 202.642,248.507 202.642,248.507 C202.642,249.731 204.082,250.739 205.882,250.739 C207.538,250.739 208.906,249.803 209.05,248.651 L209.122,248.651 L210.562,198.323 z" fill="#C59D72"/>
      <path d="M210.562,198.395 L199.69,198.971 L202.642,248.363 C202.642,248.435 202.642,248.507 202.642,248.507 C202.642,249.731 204.082,250.739 205.882,250.739 C207.538,250.739 208.906,249.803 209.05,248.651 L209.122,248.651 L210.562,198.323 z" fill-opacity="0" stroke="#373435" stroke-width="1.875" stroke-linejoin="round"/>
    </g>
    <g>
      <path d="M235.977,183.636 L225.105,184.14 L228.057,228.131 C228.057,228.203 228.057,228.203 228.057,228.275 C228.057,229.427 229.497,230.363 231.297,230.363 C232.953,230.363 234.321,229.571 234.465,228.491 L234.537,228.491 L235.977,183.636 z" fill="#C59D72"/>
      <path d="M235.977,183.636 L225.105,184.14 L228.057,228.131 C228.057,228.203 228.057,228.203 228.057,228.275 C228.057,229.427 229.497,230.363 231.297,230.363 C232.953,230.363 234.321,229.571 234.465,228.491 L234.537,228.491 L235.977,183.636 z" fill-opacity="0" stroke="#373435" stroke-width="1.875" stroke-linejoin="round"/>
    </g>
    <g>
      <path d="M191.842,172.836 L180.971,173.34 L183.923,217.331 C183.923,217.403 183.923,217.403 183.923,217.475 C183.923,218.627 185.363,219.563 187.163,219.563 C188.818,219.563 190.186,218.771 190.33,217.691 L190.402,217.691 L191.842,172.836 z" fill="#C59D72"/>
      <path d="M191.842,172.836 L180.971,173.34 L183.923,217.331 C183.923,217.403 183.923,217.403 183.923,217.475 C183.923,218.627 185.363,219.563 187.163,219.563 C188.818,219.563 190.186,218.771 190.33,217.691 L190.402,217.691 L191.842,172.836 z" fill-opacity="0" stroke="#373435" stroke-width="1.875" stroke-linejoin="round"/>
    </g>
    <g>
      <path d="M237.201,183.852 L208.474,201.707 L151.019,188.172 L191.482,168.804 L237.489,176.58 z" fill="#C59D72"/>
      <path d="M237.201,183.852 L208.474,201.707 L151.019,188.172 L191.482,168.804 L237.489,176.58 z" fill-opacity="0" stroke="#373435" stroke-width="1.875" stroke-linejoin="round"/>
    </g>
    <g>
      <path d="M237.201,176.364 L207.898,193.644 L164.843,184.5 L188.314,169.092 z" fill="#FEFEFE"/>
      <path d="M237.201,176.364 L207.898,193.644 L164.843,184.5 L188.314,169.092 z" fill-opacity="0" stroke="#373435" stroke-width="1.875" stroke-linejoin="round"/>
    </g>
    <path d="M207.898,90.036 L241.737,94.788" fill-opacity="0" stroke="#373435" stroke-width="1.875" stroke-linecap="round" stroke-linejoin="round"/>
    <path d="M243.753,99.18 L241.809,94.788 C241.809,94.788 244.833,95.004 243.753,99.18 z" fill="#C59D72"/>
    <path d="M241.737,94.788 C241.737,94.788 244.761,95.004 243.681,99.18" fill-opacity="0" stroke="#373435" stroke-width="1.875" stroke-linecap="round" stroke-linejoin="round"/>
    <g>
      <path d="M191.266,91.404 L205.234,86.508 z" fill="#FEFEFE"/>
      <path d="M191.266,91.404 L205.234,86.508 z" fill-opacity="0" stroke="#373435" stroke-width="1.875" stroke-linejoin="round"/>
    </g>
    <g>
      <path d="M225.393,173.772 C228.417,170.172 231.081,143.676 231.153,132.012 C231.945,138.06 246.705,148.716 244.041,130.428 L231.081,101.196 C225.897,93.636 211.354,92.124 211.354,92.124 L200.842,89.172 L192.778,90.756 C179.243,92.052 175.067,100.404 175.067,100.404 L157.643,123.804 L142.164,95.22 L131.508,100.908 L152.171,141.156 C153.251,142.74 154.979,143.676 156.923,143.748 C156.995,143.748 157.067,143.748 157.139,143.748 C158.939,143.748 161.819,142.524 162.971,141.084 L179.675,121.284 C180.611,135.324 179.315,155.052 175.211,165.132 C175.211,165.132 217.762,183.132 225.537,173.844 z" fill="#E3E886"/>
      <path d="M225.393,173.772 C228.417,170.172 231.081,143.676 231.153,132.012 C231.945,138.06 246.705,148.716 244.041,130.428 L231.081,101.196 C225.897,93.636 211.354,92.124 211.354,92.124 L200.842,89.172 L192.778,90.756 C179.243,92.052 175.067,100.404 175.067,100.404 L157.643,123.804 L142.164,95.22 L131.508,100.908 L152.171,141.156 C153.251,142.74 154.979,143.676 156.923,143.748 C156.995,143.748 157.067,143.748 157.139,143.748 C158.939,143.748 161.819,142.524 162.971,141.084 L179.675,121.284 C180.611,135.324 179.315,155.052 175.211,165.132 C175.211,165.132 217.762,183.132 225.537,173.844 z" fill-opacity="0" stroke="#373435" stroke-width="1.875" stroke-linejoin="round"/>
    </g>
    <g>
      <path d="M131.652,187.74 L15.879,207.755 L15.375,198.683 L130.932,180.468 z" fill="#C59D72"/>
      <path d="M131.652,187.74 L15.879,207.755 L15.375,198.683 L130.932,180.468 z" fill-opacity="0" stroke="#373435" stroke-width="1.875" stroke-linejoin="round"/>
    </g>
    <g>
      <path d="M209.626,89.316 C209.626,89.316 199.978,94.932 193.642,105.588 L196.666,110.268 C196.666,110.268 213.01,97.164 216.61,92.772 L211.282,89.172 L209.554,89.316 z" fill="#91D8F7"/>
      <path d="M209.626,89.316 C209.626,89.316 199.978,94.932 193.642,105.588 L196.666,110.268 C196.666,110.268 213.01,97.164 216.61,92.772 L211.282,89.172 L209.554,89.316 z" fill-opacity="0" stroke="#373435" stroke-width="1.875" stroke-linejoin="round"/>
    </g>
    <g>
      <path d="M197.314,104.724 C197.602,99.468 191.698,91.98 191.698,91.98 L185.435,91.044 C185.435,91.044 189.25,104.004 196.234,109.692 L197.386,104.724 z" fill="#91D8F7"/>
      <path d="M197.314,104.724 C197.602,99.468 191.698,91.98 191.698,91.98 L185.435,91.044 C185.435,91.044 189.25,104.004 196.234,109.692 L197.386,104.724 z" fill-opacity="0" stroke="#373435" stroke-width="1.875" stroke-linejoin="round"/>
    </g>
    <g>
      <path d="M191.554,103.86 C191.554,103.86 199.762,104.076 201.778,105.948 L198.538,111.564 L193.426,110.844 L191.554,103.86 z" fill="#91D8F7"/>
      <path d="M191.554,103.86 C191.554,103.86 199.762,104.076 201.778,105.948 L198.538,111.564 L193.426,110.844 L191.554,103.86 z" fill-opacity="0" stroke="#373435" stroke-width="1.875" stroke-linejoin="round"/>
    </g>
    <g>
      <path d="M193.426,110.844 C193.426,110.844 188.962,122.292 195.442,129.204 C195.442,129.204 203.722,127.98 205.81,128.34 C205.81,128.34 196.954,115.956 198.538,111.564 L193.426,110.844 z" fill="#91D8F7"/>
      <path d="M193.426,110.844 C193.426,110.844 188.962,122.292 195.442,129.204 C195.442,129.204 203.722,127.98 205.81,128.34 C205.81,128.34 196.954,115.956 198.538,111.564 L193.426,110.844 z" fill-opacity="0" stroke="#373435" stroke-width="1.875" stroke-linejoin="round"/>
    </g>
    <g>
      <path d="M193.21,110.772 C193.21,110.772 186.73,131.868 193.21,138.708 C193.21,138.708 201.346,139.5 203.218,137.124 C203.218,137.124 196.666,115.812 198.322,111.492 L193.21,110.772 z" fill="#91D8F7"/>
      <path d="M193.21,110.772 C193.21,110.772 186.73,131.868 193.21,138.708 C193.21,138.708 201.346,139.5 203.218,137.124 C203.218,137.124 196.666,115.812 198.322,111.492 L193.21,110.772 z" fill-opacity="0" stroke="#373435" stroke-width="1.875" stroke-linejoin="round"/>
    </g>
    <g>
      <path d="M122.652,62.173 C122.652,62.173 123.372,60.229 125.964,60.085 L121.428,49.141 C121.428,49.141 118.404,49.717 115.596,53.173 L122.652,62.173 z" fill="#FEFEFE"/>
      <path d="M122.652,62.173 C122.652,62.173 123.372,60.229 125.964,60.085 L121.428,49.141 C121.428,49.141 118.404,49.717 115.596,53.173 L122.652,62.173 z" fill-opacity="0" stroke="#373435" stroke-width="1.875" stroke-linejoin="round"/>
    </g>
    <g>
      <path d="M173.627,69.157 L173.051,54.613 C173.051,54.613 170.963,51.013 165.131,52.885 C160.595,54.397 157.859,66.565 173.627,69.157 z" fill="#FDD9C2"/>
      <path d="M173.051,54.613 C173.051,54.613 170.963,51.013 165.131,52.885 C160.595,54.397 157.859,66.565 173.627,69.157" fill-opacity="0" stroke="#373435" stroke-width="1.875" stroke-linecap="round" stroke-linejoin="round"/>
      <g>
        <path d="M177.803,80.028 L223.162,80.028 C226.761,76.717 227.913,71.821 231.801,61.525 C235.689,51.229 232.737,21.493 207.034,18.181 C181.331,14.869 173.051,26.317 173.051,26.317 C160.379,40.861 170.675,63.469 170.675,63.469 L177.803,79.956 z" fill="#67462E"/>
        <path d="M177.803,80.028 L223.162,80.028 C226.761,76.717 227.913,71.821 231.801,61.525 C235.689,51.229 232.737,21.493 207.034,18.181 C181.331,14.869 173.051,26.317 173.051,26.317 C160.379,40.861 170.675,63.469 170.675,63.469 L177.803,79.956 z" fill-opacity="0" stroke="#373435" stroke-width="1.875" stroke-linejoin="round"/>
      </g>
      <g>
        <path d="M170.819,41.221 C170.819,41.221 172.259,34.021 180.827,32.509 L177.515,39.349 C177.515,39.349 195.154,33.085 206.962,32.149 C206.962,32.149 215.026,29.413 219.562,36.469 C224.098,43.525 223.306,57.637 223.306,57.637 L225.321,55.981 C225.825,54.109 227.769,52.525 227.769,52.525 C228.921,51.661 230.361,50.941 233.601,51.733 C238.137,52.813 241.665,63.973 227.913,68.221 C228.129,77.221 222.37,87.228 212.722,91.476 C210.85,92.268 208.402,92.988 206.314,93.132 C201.778,94.428 194.362,93.636 194.362,93.636 C181.403,92.844 170.891,80.388 170.387,69.517 C170.387,69.517 168.011,49.789 170.747,41.365 z" fill="#FDD9C2"/>
        <path d="M170.819,41.221 C170.819,41.221 172.259,34.021 180.827,32.509 L177.515,39.349 C177.515,39.349 195.154,33.085 206.962,32.149 C206.962,32.149 215.026,29.413 219.562,36.469 C224.098,43.525 223.306,57.637 223.306,57.637 L225.321,55.981 C225.825,54.109 227.769,52.525 227.769,52.525 C228.921,51.661 230.361,50.941 233.601,51.733 C238.137,52.813 241.665,63.973 227.913,68.221 C228.129,77.221 222.37,87.228 212.722,91.476 C210.85,92.268 208.402,92.988 206.314,93.132 C201.778,94.428 194.362,93.636 194.362,93.636 C181.403,92.844 170.891,80.388 170.387,69.517 C170.387,69.517 168.011,49.789 170.747,41.365 z" fill-opacity="0" stroke="#373435" stroke-width="1.875" stroke-linejoin="round"/>
      </g>
    </g>
    <g>
      <g>
        <path d="M206.818,9.325 C206.674,10.045 206.026,10.477 205.306,10.405 C204.586,10.261 204.154,9.613 204.298,8.893 L204.874,5.725 C205.018,5.005 205.666,4.573 206.386,4.645 C207.106,4.789 207.538,5.437 207.394,6.157 L206.818,9.325 z" fill="#F27463"/>
        <path d="M206.818,9.325 C206.674,10.045 206.026,10.477 205.306,10.405 C204.586,10.261 204.154,9.613 204.298,8.893 L204.874,5.725 C205.018,5.005 205.666,4.573 206.386,4.645 C207.106,4.789 207.538,5.437 207.394,6.157 L206.818,9.325 z" fill-opacity="0" stroke="#373435" stroke-width="1.875" stroke-linejoin="round"/>
      </g>
      <g>
        <path d="M239.217,36.973 C239.145,41.077 237.489,47.701 232.521,49.429 C228.129,45.685 217.546,37.405 199.114,34.597 C185.939,32.581 175.427,34.885 166.931,38.197 C164.123,37.333 164.339,28.261 167.939,22.429 C176.003,9.325 190.69,6.877 209.914,10.333 C229.137,13.789 239.361,24.157 239.217,36.901 z" fill="#F27483"/>
        <path d="M239.217,36.973 C239.145,41.077 237.489,47.701 232.521,49.429 C228.129,45.685 217.546,37.405 199.114,34.597 C185.939,32.581 175.427,34.885 166.931,38.197 C164.123,37.333 164.339,28.261 167.939,22.429 C176.003,9.325 190.69,6.877 209.914,10.333 C229.137,13.789 239.361,24.157 239.217,36.901 z" fill-opacity="0" stroke="#373435" stroke-width="1.875" stroke-linejoin="round"/>
      </g>
    </g>
    <g>
      <path d="M225.321,169.452 C220.642,185.652 212.65,188.964 200.122,186.948 C184.859,184.428 155.915,177.372 155.915,177.372 L140.148,209.627 L124.524,203.075 C124.524,203.075 141.228,163.764 148.787,159.084 C148.787,159.084 151.955,155.772 160.667,156.708 C170.243,157.788 195.082,165.204 195.082,165.204 C195.082,165.204 213.154,170.244 225.249,169.38 z" fill="#FEFEFE"/>
      <path d="M225.321,169.452 C220.642,185.652 212.65,188.964 200.122,186.948 C184.859,184.428 155.915,177.372 155.915,177.372 L140.148,209.627 L124.524,203.075 C124.524,203.075 141.228,163.764 148.787,159.084 C148.787,159.084 151.955,155.772 160.667,156.708 C170.243,157.788 195.082,165.204 195.082,165.204 C195.082,165.204 213.154,170.244 225.249,169.38 z" fill-opacity="0" stroke="#373435" stroke-width="1.875" stroke-linejoin="round"/>
    </g>
    <g>
      <path d="M169.163,236.123 L164.699,189.612 L188.89,184.716 C188.89,184.716 181.835,183.132 169.019,178.956 C154.475,174.204 149.867,178.38 149.867,178.38 C146.196,180.396 145.908,186.876 145.836,188.172 C145.62,202.139 149.867,238.859 149.867,238.859 C149.867,238.859 151.235,240.875 160.019,240.371 C168.803,239.867 169.091,236.123 169.091,236.123 z" fill="#FEFEFE"/>
      <path d="M169.163,236.123 L164.699,189.612 L188.89,184.716 C188.89,184.716 181.835,183.132 169.019,178.956 C154.475,174.204 149.867,178.38 149.867,178.38 C146.196,180.396 145.908,186.876 145.836,188.172 C145.62,202.139 149.867,238.859 149.867,238.859 C149.867,238.859 151.235,240.875 160.019,240.371 C168.803,239.867 169.091,236.123 169.091,236.123 z" fill-opacity="0" stroke="#373435" stroke-width="1.875" stroke-linejoin="round"/>
    </g>
    <path d="M187.522,58.429 C187.522,59.437 184.859,60.301 181.547,60.373 C178.235,60.445 175.499,59.725 175.427,58.717 C175.427,57.709 178.091,56.845 181.403,56.773 C184.715,56.701 187.45,57.421 187.522,58.429 z" fill="#F8B7B3" fill-opacity="0.702"/>
    <path d="M182.195,57.277 L182.051,53.245 C182.051,53.245 182.267,54.109 182.195,57.277 z" fill="#FEFEFE"/>
    <path d="M182.051,53.245 C182.051,53.245 182.267,54.109 182.195,57.277" fill-opacity="0" stroke="#373435" stroke-width="2.5" stroke-linecap="round" stroke-linejoin="round"/>
    <path d="M216.394,58.429 C216.466,59.437 213.802,60.373 210.49,60.661 C207.178,60.877 204.37,60.301 204.37,59.293 C204.298,58.285 206.962,57.277 210.274,57.061 C213.586,56.845 216.322,57.421 216.394,58.429 z" fill="#F8B7B3" fill-opacity="0.702"/>
    <path d="M209.122,57.637 L209.266,53.245 C209.266,53.245 209.194,54.469 209.122,57.637 z" fill="#FEFEFE"/>
    <path d="M209.266,53.245 C209.266,53.245 209.194,54.469 209.122,57.637" fill-opacity="0" stroke="#373435" stroke-width="2.5" stroke-linecap="round" stroke-linejoin="round"/>
    <path d="M195.37,56.197 C196.306,59.077 190.114,57.349 190.978,60.157 C191.554,61.957 195.802,61.597 197.17,61.525" fill-opacity="0" stroke="#373435" stroke-width="1.875" stroke-linecap="round" stroke-linejoin="round"/>
    <path d="M179.099,111.78 C179.099,111.78 179.243,113.796 179.531,122.508" fill-opacity="0" stroke="#373435" stroke-width="1.875" stroke-linecap="round" stroke-linejoin="round"/>
    <path d="M223.738,110.988 C223.738,110.988 225.969,119.772 225.393,126.252" fill-opacity="0" stroke="#373435" stroke-width="1.875" stroke-linecap="round" stroke-linejoin="round"/>
    <g>
      <path d="M227.769,124.02 C227.769,124.02 218.626,119.844 210.994,128.772 C203.362,137.7 197.962,160.164 213.298,169.164 C213.298,169.164 232.089,179.172 247.137,160.02 C260.385,143.1 258.081,125.748 246.273,124.092 C234.465,122.436 234.177,128.196 227.769,124.02 z" fill="#FEFEFE"/>
      <path d="M227.769,124.02 C227.769,124.02 218.626,119.844 210.994,128.772 C203.362,137.7 197.962,160.164 213.298,169.164 C213.298,169.164 232.089,179.172 247.137,160.02 C260.385,143.1 258.081,125.748 246.273,124.092 C234.465,122.436 234.177,128.196 227.769,124.02 z" fill-opacity="0" stroke="#373435" stroke-width="1.875" stroke-linejoin="round"/>
    </g>
    <g>
      <path d="M225.753,134.172 C225.753,134.172 225.033,139.284 226.833,140.004 C228.777,140.796 230.649,139.932 231.297,137.988 C231.945,136.044 232.953,130.788 229.353,131.148 C225.825,131.58 225.753,134.172 225.753,134.172 z" fill="#FDD9C2"/>
      <path d="M225.753,134.172 C225.753,134.172 225.033,139.284 226.833,140.004 C228.777,140.796 230.649,139.932 231.297,137.988 C231.945,136.044 232.953,130.788 229.353,131.148 C225.825,131.58 225.753,134.172 225.753,134.172 z" fill-opacity="0" stroke="#373435" stroke-width="1.875" stroke-linejoin="round"/>
    </g>
    <path d="M185.003,68.941 L184.139,70.597" fill-opacity="0" stroke="#373435" stroke-width="1.875" stroke-linecap="round" stroke-linejoin="round"/>
    <path d="M184.139,70.597 C184.139,70.597 187.81,76.213 196.594,76.069 C200.266,75.997 206.746,74.413 210.274,70.165" fill-opacity="0" stroke="#373435" stroke-width="1.875" stroke-linecap="round" stroke-linejoin="round"/>
    <path d="M73.19,93.924 C73.19,95.148 73.622,95.724 73.478,96.948 C73.334,98.1 82.693,101.268 82.405,102.42 C82.117,103.572 83.557,106.236 83.125,107.316 C82.693,108.396 80.245,109.548 79.597,110.556 C79.021,111.564 69.95,107.1 69.23,108.036 C68.51,108.972 67.862,109.26 66.998,110.124 C66.134,110.988 67.862,114.228 66.926,114.948 C65.99,115.668 64.118,114.66 63.11,115.308 C62.102,115.884 62.318,118.764 61.238,119.268 C60.158,119.7 60.302,125.028 59.15,125.316 C57.998,125.604 56.27,126.684 55.046,126.828 C53.894,126.972 51.95,119.772 50.726,119.772 C49.502,119.772 48.35,120.636 47.198,120.42 C46.046,120.276 45.398,118.188 44.246,117.9 C43.094,117.612 40.07,122.508 38.99,122.004 C37.91,121.572 35.463,122.508 34.455,121.932 C33.447,121.356 40.07,109.548 39.134,108.828 C38.198,108.108 29.847,116.244 29.055,115.452 C28.191,114.588 27.255,113.292 26.535,112.356 C25.815,111.42 28.839,107.82 28.263,106.74 C27.687,105.732 26.391,105.156 25.959,104.076 C25.527,102.996 16.743,104.148 16.383,102.996 C16.095,101.844 28.119,98.028 27.975,96.804 C27.831,95.652 21.639,95.004 21.639,93.78 C21.639,92.556 20.991,91.044 21.135,89.892 C21.279,88.74 17.391,86.076 17.751,84.924 C18.039,83.772 21.567,82.908 21.999,81.828 C22.431,80.748 22.071,78.516 22.647,77.508 C23.223,76.501 32.223,81.036 32.943,80.1 C33.663,79.164 25.599,70.309 26.463,69.445 C27.327,68.581 31.575,70.741 32.583,70.021 C33.519,69.301 33.879,66.853 34.887,66.277 C35.895,65.701 41.942,75.565 43.022,75.133 C44.102,74.701 41.222,62.965 42.374,62.677 C43.526,62.389 46.622,71.749 47.774,71.605 C48.926,71.461 49.502,65.917 50.726,65.917 C51.95,65.917 52.238,73.549 53.39,73.765 C54.542,73.909 55.19,72.613 56.342,72.901 C57.494,73.189 58.79,71.389 59.87,71.821 C60.95,72.253 61.31,73.261 62.318,73.837 C63.326,74.413 69.95,66.925 70.886,67.645 C71.822,68.365 66.782,76.141 67.646,77.005 C68.51,77.868 68.51,78.804 69.23,79.74 C69.95,80.676 66.71,83.34 67.358,84.348 C67.934,85.356 81.757,79.812 82.189,80.892 C82.621,81.972 75.421,86.076 75.709,87.228 C75.997,88.38 84.997,88.236 85.141,89.388 C85.285,90.54 73.19,92.7 73.19,93.924 z" fill="#F27483"/>
    <path d="M88.381,123.876 C88.381,125.1 92.053,126.108 91.765,127.26 C91.477,128.412 89.317,128.412 88.741,129.42 C88.165,130.428 90.757,133.812 89.893,134.676 C89.029,135.54 85.717,132.948 84.709,133.596 C83.701,134.172 83.269,134.604 82.117,134.964 C81.037,135.252 80.389,140.22 79.165,140.22 C77.941,140.22 75.781,141.084 74.629,140.796 C73.478,140.508 71.894,138.924 70.814,138.348 C69.806,137.772 71.75,133.02 70.886,132.156 C70.022,131.292 69.734,130.716 69.158,129.708 C68.582,128.7 66.566,128.556 66.278,127.404 C65.99,126.252 66.782,125.172 66.782,123.948 C66.782,122.724 65.63,121.5 65.918,120.42 C66.206,119.268 64.55,116.892 65.126,115.884 C65.702,114.876 66.638,113.148 67.43,112.284 C68.294,111.42 71.678,113.436 72.686,112.788 C73.694,112.212 74.557,111.348 75.709,111.06 C76.789,110.772 77.941,111.564 79.165,111.564 C80.389,111.564 81.973,108.972 83.125,109.26 C84.277,109.548 86.293,109.332 87.301,109.908 C88.309,110.484 85.069,116.388 85.861,117.252 C86.725,118.116 91.765,115.308 92.413,116.316 C92.989,117.324 93.565,118.836 93.853,119.988 C94.141,121.068 88.453,122.724 88.453,123.876 z" fill="#00AFEF"/>
    <path d="M81.397,144.9 C81.397,146.052 82.189,146.916 82.045,148.068 C81.901,149.22 76.861,148.572 76.501,149.724 C76.141,150.876 89.389,156.996 88.957,158.076 C88.453,159.156 85.789,160.02 85.141,160.956 C84.493,161.964 78.085,158.868 77.365,159.804 C76.573,160.668 75.061,160.236 74.126,161.028 C73.262,161.82 70.238,158.436 69.302,159.084 C68.294,159.732 68.294,159.732 67.214,160.164 C66.134,160.668 68.078,167.292 66.926,167.58 C65.846,167.94 64.334,164.628 63.11,164.772 C61.958,164.916 61.454,172.476 60.23,172.476 C59.078,172.476 58.502,165.06 57.35,164.916 C56.198,164.772 55.55,165.06 54.398,164.7 C53.246,164.34 48.998,172.188 47.99,171.756 C46.91,171.252 44.174,172.116 43.166,171.468 C42.158,170.82 41.438,168.372 40.574,167.652 C39.71,166.86 45.11,159.588 44.39,158.724 C43.598,157.86 43.454,157.212 42.806,156.204 C42.158,155.196 38.918,156.06 38.414,154.98 C37.91,153.9 39.134,152.46 38.846,151.308 C38.486,150.228 35.895,149.724 35.751,148.572 C35.607,147.42 30.927,146.196 30.927,145.044 C30.927,143.892 30.423,141.948 30.567,140.796 C30.711,139.644 37.478,139.572 37.838,138.492 C38.198,137.34 37.766,136.116 38.27,135.036 C38.774,133.956 40.718,133.956 41.366,132.948 C42.014,131.94 38.702,127.98 39.494,127.044 C40.286,126.18 40.214,123.732 41.078,122.94 C41.942,122.148 50.006,131.292 51.014,130.644 C52.022,129.996 47.702,120.42 48.782,119.916 C49.862,119.412 51.374,119.052 52.526,118.692 C53.606,118.332 55.766,122.076 56.918,121.932 C58.07,121.788 59.078,120.924 60.23,120.924 C61.382,120.924 63.614,113.22 64.766,113.364 C65.918,113.508 64.91,124.884 66.062,125.244 C67.214,125.604 70.094,120.708 71.102,121.212 C72.182,121.716 73.766,121.788 74.773,122.436 C75.781,123.084 79.525,121.068 80.389,121.788 C81.253,122.58 80.677,125.82 81.397,126.684 C82.189,127.548 84.205,128.268 84.781,129.204 C85.429,130.212 78.085,135.54 78.589,136.62 C79.093,137.7 89.533,135.18 89.893,136.26 C90.253,137.34 86.725,140.004 86.869,141.156 C87.013,142.308 81.397,143.82 81.397,144.972 z" fill="#FFF212"/>
    <path d="M218.482,147.852 C219.634,147.852 220.21,147.78 221.146,148.14 C222.154,148.5 224.961,145.764 225.825,146.412 C226.689,147.06 228.633,147.78 229.281,148.716 C229.929,149.58 230.217,151.596 230.505,152.676 C230.793,153.684 227.265,155.412 227.265,156.564 C227.265,157.716 227.049,158.292 226.689,159.3 C226.329,160.308 227.193,161.676 226.545,162.54 C225.897,163.404 224.745,163.548 223.882,164.196 C223.018,164.844 222.586,166.14 221.506,166.5 C220.498,166.788 219.346,168.948 218.266,168.876 C217.114,168.876 215.386,168.804 214.378,168.516 C213.37,168.156 213.37,165.06 212.506,164.412 C211.642,163.764 210.706,163.26 210.058,162.396 C209.41,161.532 209.698,160.38 209.338,159.3 C209.05,158.292 206.746,157.428 206.746,156.348 C206.746,155.196 206.314,153.54 206.674,152.532 C207.034,151.524 212.002,153.036 212.65,152.172 C213.298,151.308 210.85,147.564 211.714,146.988 C212.578,146.34 213.946,145.764 215.026,145.404 C216.034,145.116 217.474,147.924 218.554,147.924 z" fill="#F27483"/>
    <path d="M241.809,135.9 C242.889,135.9 243.897,133.812 244.833,134.244 C245.841,134.676 245.769,136.044 246.489,136.836 C247.209,137.628 249.873,137.052 250.233,138.06 C250.593,138.996 248.433,140.436 248.433,141.588 C248.433,142.668 248.433,143.244 248.001,144.18 C247.569,145.188 249.297,147.78 248.577,148.5 C247.785,149.22 246.633,150.804 245.625,151.236 C244.689,151.596 242.673,151.452 241.593,151.452 C240.513,151.452 239.937,148.284 238.929,147.852 C237.921,147.42 237.489,146.988 236.769,146.268 C236.049,145.476 234.681,145.404 234.249,144.396 C233.889,143.46 234.249,142.452 234.249,141.3 C234.249,140.22 233.673,139.068 234.105,138.132 C234.537,137.124 234.105,135.108 234.897,134.388 C235.689,133.668 236.985,132.516 237.993,132.084 C238.929,131.724 240.657,135.756 241.809,135.828 z" fill="#00AFEF"/>
    <path d="M234.609,149.364 C235.905,149.364 236.697,149.22 237.849,149.724 C239.001,150.228 238.281,152.1 239.145,152.964 C240.009,153.828 245.265,151.884 245.697,153.036 C246.129,154.116 245.841,156.348 245.841,157.644 C245.841,158.94 242.961,159.804 242.457,160.884 C241.953,162.036 241.017,162.396 240.153,163.26 C239.289,164.124 237.993,162.972 236.841,163.404 C235.761,163.836 235.689,163.836 234.393,163.836 C233.097,163.836 232.017,166.212 230.937,165.708 C229.785,165.204 229.857,163.62 228.993,162.756 C228.129,161.892 225.177,162.468 224.673,161.316 C224.242,160.236 226.689,158.58 226.761,157.284 C226.761,155.988 226.761,155.34 227.265,154.26 C227.769,153.108 225.753,150.156 226.617,149.292 C227.481,148.428 228.849,146.628 230.001,146.196 C231.081,145.764 233.313,149.292 234.537,149.292 z" fill="#FFF212"/>
    <path d="M228.417,23.509 C228.417,23.509 235.473,28.621 234.249,38.341" fill-opacity="0" stroke="#373435" stroke-width="1.875" stroke-linecap="round" stroke-linejoin="round"/>
    <g>
      <path d="M207.826,193.572 L208.042,201.203 z" fill="#C59D72"/>
      <path d="M207.826,193.572 L208.042,201.203 z" fill-opacity="0" stroke="#373435" stroke-width="1.875" stroke-linejoin="round"/>
    </g>
    <path d="M159.443,127.26 L157.643,123.804 C157.787,123.948 159.443,127.26 159.443,127.26 z" fill="#E3E886"/>
    <path d="M157.643,123.732 C157.787,123.876 159.443,127.188 159.443,127.188" fill-opacity="0" stroke="#373435" stroke-width="1.875" stroke-linecap="round" stroke-linejoin="round"/>
    <g>
      <path d="M164.123,184.788 L164.771,190.98 z" fill="#91D8F7"/>
      <path d="M164.123,184.788 L164.771,190.98 z" fill-opacity="0" stroke="#373435" stroke-width="1.875" stroke-linejoin="round"/>
    </g>
  </g>
</svg>
